<?xml version="1.0" encoding="UTF-8" standalone="no"?>
<!DOCTYPE svg PUBLIC "-//W3C//DTD SVG 1.1//EN" "http://www.w3.org/Graphics/SVG/1.1/DTD/svg11.dtd">
<svg width="100%" height="100%" viewBox="0 0 504 1047" version="1.1" xmlns="http://www.w3.org/2000/svg" xmlns:xlink="http://www.w3.org/1999/xlink" xml:space="preserve" xmlns:serif="http://www.serif.com/" style="fill-rule:evenodd;clip-rule:evenodd;stroke-linejoin:round;stroke-miterlimit:1.41421;">
    <g transform="matrix(1,0,0,1,-716.544,-249.856)">
        <path d="M1220.35,291.81C1220.35,268.655 1201.55,249.856 1178.4,249.856L758.498,249.856C735.343,249.856 716.544,268.655 716.544,291.81L716.544,1254.43C716.544,1277.59 735.343,1296.38 758.498,1296.38L1178.4,1296.38C1201.55,1296.38 1220.35,1277.59 1220.35,1254.43L1220.35,291.81Z" style="fill:rgb(168,102,48);"/>
        <g transform="matrix(1,0,0,1,4.09609,-2.04801)">
            <path d="M880.384,322.048C880.384,304.811 866.389,290.816 849.152,290.816L786.688,290.816C769.451,290.816 755.456,304.811 755.456,322.048L755.456,384.512C755.456,401.749 769.451,415.744 786.688,415.744L849.152,415.744C866.389,415.744 880.384,401.749 880.384,384.512L880.384,322.048Z" style="fill:rgb(211,130,55);"/>
        </g>
        <g transform="matrix(1,0,0,1,-6.14391,-16.384)">
            <path d="M892.672,1171.46C892.672,1154.5 878.907,1140.74 861.952,1140.74L800.512,1140.74C783.557,1140.74 769.792,1154.5 769.792,1171.46L769.792,1232.9C769.792,1249.85 783.557,1263.62 800.512,1263.62L861.952,1263.62C878.907,1263.62 892.672,1249.85 892.672,1232.9L892.672,1171.46Z" style="fill:rgb(211,130,55);"/>
        </g>
        <g transform="matrix(1,0,0,1,-73.728,-100.352)">
            <path d="M1136.38,1174.02C1136.38,1156.78 1122.39,1142.78 1105.15,1142.78L1042.69,1142.78C1025.45,1142.78 1011.46,1156.78 1011.46,1174.02L1011.46,1236.48C1011.46,1253.72 1025.45,1267.71 1042.69,1267.71L1105.15,1267.71C1122.39,1267.71 1136.38,1253.72 1136.38,1236.48L1136.38,1174.02Z" style="fill:rgb(211,130,55);"/>
        </g>
        <g transform="matrix(1,0,0,1,-16.3841,-360.448)">
            <path d="M896.768,1016.83C896.768,1001.57 884.379,989.184 869.12,989.184L813.824,989.184C798.565,989.184 786.176,1001.57 786.176,1016.83L786.176,1072.13C786.176,1087.39 798.565,1099.78 813.824,1099.78L869.12,1099.78C884.379,1099.78 896.768,1087.39 896.768,1072.13L896.768,1016.83Z" style="fill:rgb(211,130,55);"/>
        </g>
        <g transform="matrix(1,0,0,1,-71.6802,-450.56)">
            <path d="M1122.05,1019.39C1122.05,1004.98 1110.35,993.28 1095.94,993.28L1043.71,993.28C1029.3,993.28 1017.6,1004.98 1017.6,1019.39L1017.6,1071.62C1017.6,1086.03 1029.3,1097.73 1043.71,1097.73L1095.94,1097.73C1110.35,1097.73 1122.05,1086.03 1122.05,1071.62L1122.05,1019.39Z" style="fill:rgb(211,130,55);"/>
        </g>
        <g transform="matrix(1,0,0,1,-12.288,4.09602)">
            <path d="M894.72,483.328C894.72,467.504 881.873,454.656 866.048,454.656L808.704,454.656C792.88,454.656 780.032,467.504 780.032,483.328L780.032,540.672C780.032,556.496 792.88,569.344 808.704,569.344L866.048,569.344C881.873,569.344 894.72,556.496 894.72,540.672L894.72,483.328Z" style="fill:rgb(211,130,55);"/>
        </g>
        <g transform="matrix(1,0,0,1,-83.9678,399.36)">
            <path d="M1142.53,502.272C1142.53,486.165 1129.45,473.088 1113.34,473.088L1054.98,473.088C1038.87,473.088 1025.79,486.165 1025.79,502.272L1025.79,560.64C1025.79,576.747 1038.87,589.824 1054.98,589.824L1113.34,589.824C1129.45,589.824 1142.53,576.747 1142.53,560.64L1142.53,502.272Z" style="fill:rgb(211,130,55);"/>
        </g>
        <g transform="matrix(1,0,0,1,-32.7681,180.224)">
            <path d="M913.152,641.024C913.152,625.2 900.305,612.352 884.48,612.352L827.136,612.352C811.312,612.352 798.464,625.2 798.464,641.024L798.464,698.368C798.464,714.193 811.312,727.04 827.136,727.04L884.48,727.04C900.305,727.04 913.152,714.193 913.152,698.368L913.152,641.024Z" style="fill:rgb(211,130,55);"/>
        </g>
        <g transform="matrix(1,0,0,1,-20.48,192.512)">
            <path d="M900.864,797.696C900.864,782.437 888.475,770.048 873.216,770.048L817.92,770.048C802.661,770.048 790.272,782.437 790.272,797.696L790.272,852.992C790.272,868.251 802.661,880.64 817.92,880.64L873.216,880.64C888.475,880.64 900.864,868.251 900.864,852.992L900.864,797.696Z" style="fill:rgb(211,130,55);"/>
        </g>
        <g transform="matrix(1,0,0,1,-73.7281,-464.896)">
            <path d="M1128.19,872.96C1128.19,859.114 1116.95,847.872 1103.1,847.872L1052.93,847.872C1039.08,847.872 1027.84,859.114 1027.84,872.96L1027.84,923.136C1027.84,936.983 1039.08,948.224 1052.93,948.224L1103.1,948.224C1116.95,948.224 1128.19,936.983 1128.19,923.136L1128.19,872.96Z" style="fill:rgb(211,130,55);"/>
        </g>
        <circle cx="1155.84" cy="781.312" r="44.032" style="fill:rgb(231,167,21);"/>
    </g>
</svg>
