<?xml version="1.0" encoding="UTF-8" standalone="no"?>
<!DOCTYPE svg PUBLIC "-//W3C//DTD SVG 1.1//EN" "http://www.w3.org/Graphics/SVG/1.1/DTD/svg11.dtd">
<svg width="100%" height="100%" viewBox="0 0 226 226" version="1.1" xmlns="http://www.w3.org/2000/svg" xmlns:xlink="http://www.w3.org/1999/xlink" xml:space="preserve" xmlns:serif="http://www.serif.com/" style="fill-rule:evenodd;clip-rule:evenodd;stroke-linejoin:round;stroke-miterlimit:1.41421;">
    <g transform="matrix(1,0,0,1,-841.472,-526.318)">
        <rect x="841.472" y="526.336" width="225.28" height="225.28" style="fill:rgb(44,44,44);"/>
        <g transform="matrix(1.00155,0,0,1.00712,-1.44469,-4.15199)">
            <rect x="841.62" y="526.72" width="224.949" height="56.371" style="fill:rgb(104,104,104);"/>
        </g>
        <rect x="989.133" y="541.276" width="23.021" height="6.185" style="fill:rgb(72,72,72);"/>
        <rect x="1020.4" y="665.658" width="5.841" height="24.395" style="fill:rgb(27,27,27);"/>
        <rect x="878.838" y="708.951" width="21.99" height="6.185" style="fill:rgb(54,54,54);"/>
        <rect x="928.316" y="627.175" width="7.903" height="12.713" style="fill:rgb(137,137,137);"/>
        <rect x="1002.88" y="732.66" width="14.775" height="7.216" style="fill:rgb(71,71,71);"/>
        <rect x="941.717" y="566.015" width="5.498" height="3.092" style="fill:rgb(110,110,110);"/>
        <rect x="848.258" y="534.748" width="3.436" height="4.81" style="fill:rgb(57,57,57);"/>
        <rect x="1056.13" y="560.517" width="2.405" height="13.057" style="fill:rgb(130,130,130);"/>
        <rect x="865.782" y="612.401" width="10.995" height="10.995" style="fill:rgb(58,58,58);"/>
        <rect x="997.723" y="594.877" width="10.308" height="10.308" style="fill:rgb(135,135,135);"/>
        <rect x="927.973" y="689.023" width="7.216" height="7.216" style="fill:rgb(36,36,36);"/>
        <rect x="899.454" y="546.086" width="4.81" height="4.81" style="fill:rgb(87,87,87);"/>
    </g>
</svg>
